<svg width="26" height="30" viewBox="0 0 26 30" fill="none" xmlns="http://www.w3.org/2000/svg">
<path d="M11.0002 17.6654V20.332C6.58188 20.332 3.00016 23.9138 3.00016 28.332H0.333496C0.333496 22.441 5.10912 17.6654 11.0002 17.6654ZM11.0002 16.332C6.58016 16.332 3.00016 12.752 3.00016 8.33203C3.00016 3.91203 6.58016 0.332031 11.0002 0.332031C15.4202 0.332031 19.0002 3.91203 19.0002 8.33203C19.0002 12.752 15.4202 16.332 11.0002 16.332ZM11.0002 13.6654C13.9468 13.6654 16.3335 11.2787 16.3335 8.33203C16.3335 5.38536 13.9468 2.9987 11.0002 2.9987C8.0535 2.9987 5.66683 5.38536 5.66683 8.33203C5.66683 11.2787 8.0535 13.6654 11.0002 13.6654ZM19.0002 27.6654L15.0816 29.7255L15.83 25.362L12.6598 22.2719L17.0408 21.6354L19.0002 17.6654L20.9595 21.6354L25.3406 22.2719L22.1703 25.362L22.9187 29.7255L19.0002 27.6654Z" fill="#E69F22"/>
</svg>
