<svg width="26" height="28" viewBox="0 0 26 28" fill="none" xmlns="http://www.w3.org/2000/svg">
<path d="M5.9974 0.666016C9.5831 0.666016 12.6965 2.68806 14.2596 5.65407C15.8293 3.44271 18.4115 1.99935 21.3307 1.99935H25.9973V5.33268C25.9973 10.1191 22.1172 13.9993 17.3307 13.9993H15.3307V15.3327H21.9973V24.666C21.9973 26.1388 20.8035 27.3327 19.3307 27.3327H8.66406C7.1913 27.3327 5.9974 26.1388 5.9974 24.666V15.3327H12.664V12.666H9.9974C4.84273 12.666 0.664062 8.48734 0.664062 3.33268V0.666016H5.9974ZM19.3307 17.9993H8.66406V24.666H19.3307V17.9993ZM23.3307 4.66602H21.3307C18.0171 4.66602 15.3307 7.35231 15.3307 10.666V11.3327H17.3307C20.6444 11.3327 23.3307 8.64639 23.3307 5.33268V4.66602ZM5.9974 3.33268H3.33073C3.33073 7.01458 6.31549 9.99935 9.9974 9.99935H12.664C12.664 6.31746 9.67929 3.33268 5.9974 3.33268Z" fill="#E69F22"/>
</svg>
