<svg width="32" height="28" viewBox="0 0 32 28" fill="none" xmlns="http://www.w3.org/2000/svg">
<path d="M18 2.66602C18 3.25835 17.7425 3.79054 17.3333 4.15675V6.66602H24C26.2092 6.66602 28 8.45688 28 10.666V23.9993C28 26.2085 26.2092 27.9993 24 27.9993H8C5.79087 27.9993 4 26.2085 4 23.9993V10.666C4 8.45688 5.79087 6.66602 8 6.66602H14.6667V4.15675C14.2575 3.79054 14 3.25835 14 2.66602C14 1.56144 14.8955 0.666016 16 0.666016C17.1045 0.666016 18 1.56144 18 2.66602ZM8 9.33268C7.26363 9.33268 6.66667 9.92964 6.66667 10.666V23.9993C6.66667 24.7357 7.26363 25.3327 8 25.3327H24C24.7364 25.3327 25.3333 24.7357 25.3333 23.9993V10.666C25.3333 9.92964 24.7364 9.33268 24 9.33268H17.3333H14.6667H8ZM2.66667 13.3327H0V21.3327H2.66667V13.3327ZM29.3333 13.3327H32V21.3327H29.3333V13.3327ZM12 19.3327C13.1046 19.3327 14 18.4372 14 17.3327C14 16.2282 13.1046 15.3327 12 15.3327C10.8954 15.3327 10 16.2282 10 17.3327C10 18.4372 10.8954 19.3327 12 19.3327ZM20 19.3327C21.1045 19.3327 22 18.4372 22 17.3327C22 16.2282 21.1045 15.3327 20 15.3327C18.8955 15.3327 18 16.2282 18 17.3327C18 18.4372 18.8955 19.3327 20 19.3327Z" fill="#E69F22"/>
</svg>
