<svg width="28" height="28" viewBox="0 0 28 28" fill="none" xmlns="http://www.w3.org/2000/svg">
<path d="M13.9998 27.3346C6.63604 27.3346 0.666504 21.365 0.666504 14.0013C0.666504 6.6375 6.63604 0.667969 13.9998 0.667969C21.3636 0.667969 27.3332 6.6375 27.3332 14.0013C27.3332 21.365 21.3636 27.3346 13.9998 27.3346ZM13.9998 24.668C19.8909 24.668 24.6665 19.8924 24.6665 14.0013C24.6665 8.11026 19.8909 3.33464 13.9998 3.33464C8.1088 3.33464 3.33317 8.11026 3.33317 14.0013C3.33317 19.8924 8.1088 24.668 13.9998 24.668ZM7.33317 14.0013H9.99984C9.99984 16.2105 11.7906 18.0013 13.9998 18.0013C16.209 18.0013 17.9998 16.2105 17.9998 14.0013H20.6665C20.6665 17.6832 17.6817 20.668 13.9998 20.668C10.3179 20.668 7.33317 17.6832 7.33317 14.0013Z" fill="#E69F22"/>
</svg>
